<?xml version="1.0" encoding="utf-8"?>
<!-- Generator: Adobe Illustrator 24.0.3, SVG Export Plug-In . SVG Version: 6.00 Build 0)  -->
<svg version="1.1" id="Layer_1" xmlns="http://www.w3.org/2000/svg" xmlns:xlink="http://www.w3.org/1999/xlink" x="0px" y="0px"
	 viewBox="0 0 512 512" style="enable-background:new 0 0 512 512;" xml:space="preserve">
<style type="text/css">
	.st0{fill:#FFFFFF;}
</style>
<path class="st0" d="M464,256H48c-26.5,0-48,21.5-48,48s21.5,48,48,48h416c26.5,0,48-21.5,48-48S490.5,256,464,256L464,256z
	 M480,384H32c-8.8,0-16,7.2-16,16v16c0,35.3,28.7,64,64,64h352c35.3,0,64-28.7,64-64v-16C496,391.2,488.8,384,480,384z M58.6,224
	h394.7c34.6,0,54.6-43.9,34.8-75.9C448,83.2,359.5,32.1,256,32C152.5,32.1,64,83.2,23.8,148.1C4,180.1,24.1,224,58.6,224z M384,112
	c8.8,0,16,7.2,16,16s-7.2,16-16,16s-16-7.2-16-16S375.2,112,384,112z M256,80c8.8,0,16,7.2,16,16s-7.2,16-16,16c-8.8,0-16-7.2-16-16
	S247.2,80,256,80z M128,112c8.8,0,16,7.2,16,16s-7.2,16-16,16s-16-7.2-16-16S119.2,112,128,112z"/>
</svg>
