<?xml version="1.0" encoding="utf-8"?>
<!-- Generator: Adobe Illustrator 24.0.3, SVG Export Plug-In . SVG Version: 6.00 Build 0)  -->
<svg version="1.1" id="Layer_1" xmlns="http://www.w3.org/2000/svg" xmlns:xlink="http://www.w3.org/1999/xlink" x="0px" y="0px"
	 viewBox="0 0 283 72" style="enable-background:new 0 0 283 72;" xml:space="preserve">
<style type="text/css">
	.st0{fill:#FFFFFF;}
</style>
<g>
	<g>
		<g>
			<path class="st0" d="M17.8,22.1c3.2,0,5.6,0.5,7.1,1.5c1.4,0.9,2.1,2.3,2.1,4.2c0,2.1-1,3.5-3,4.3l-2.3,1L24,34
				c1.4,0.5,2.4,1.2,3,2s0.9,1.9,0.9,3.1c0,1.6,0,6.4-10.2,6.4H7v-2.3h2.1h1v-1V25.5v-1h-1H7v-2.3h10.8 M14.7,32.2h1h2
				c1.4,0,2.5-0.3,3.3-0.9c0.9-0.7,1.3-1.7,1.3-3.2c0-1.7-0.9-2.6-1.6-3c-0.9-0.5-2-0.7-3.5-0.7h-1.5h-1v1v5.7L14.7,32.2 M14.7,43.3
				h1h2.6c1.4,0,2.5-0.3,3.4-1c1-0.7,1.4-1.8,1.4-3.3c0-1.6-0.5-2.7-1.5-3.5c-0.9-0.7-2.3-1-4.3-1h-1.6h-1v1v6.8L14.7,43.3
				 M17.8,21.1H6v4.3h3.1v16.8H6v4.3h11.8c7.4,0,11.2-2.5,11.2-7.4c0-1.5-0.4-2.7-1.1-3.7c-0.8-1-1.9-1.8-3.4-2.4
				c2.4-1,3.6-2.8,3.6-5.3c0-2.2-0.8-3.9-2.5-5C23.8,21.7,21.2,21.1,17.8,21.1L17.8,21.1z M15.7,31.2v-5.7h1.6c1.3,0,2.3,0.2,3,0.6
				c0.7,0.4,1.1,1.1,1.1,2.1c0,1.1-0.3,1.9-0.9,2.4s-1.5,0.7-2.7,0.7h-2.1C15.7,31.3,15.7,31.2,15.7,31.2z M15.7,42.3v-6.8h1.7
				c1.7,0,3,0.3,3.7,0.8s1.1,1.4,1.1,2.7c0,1.1-0.3,2-1,2.5s-1.6,0.8-2.8,0.8H15.7L15.7,42.3z"/>
		</g>
		<g>
			<path class="st0" d="M39.1,22.1v20.4v1h1h1.5v2.1h-9v-2.1h1.8h1v-1V25.2v-1h-1h-1.7v-2.1H39.1 M40.1,21.1h-8.4v4.1h2.8v17.3h-2.8
				v4.1h11v-4.1h-2.5L40.1,21.1L40.1,21.1z"/>
		</g>
		<g>
			<path class="st0" d="M53.3,29.4c1.6,0,3,0.4,4.3,1.1s2.2,1.7,3,2.9c0.7,1.3,1.1,2.7,1.1,4.3s-0.4,3-1.1,4.3c-0.7,1.3-1.8,2.3-3,3
				c-1.3,0.7-2.7,1.1-4.2,1.1c-1.6,0-3.1-0.4-4.3-1.1c-1.4-0.7-2.4-1.7-3.1-3s-1.1-2.7-1.1-4.3s0.4-3,1.1-4.2c0.7-1.2,1.7-2.2,3-3
				C50.3,29.8,51.8,29.4,53.3,29.4 M53.3,43.6c1.4,0,2.6-0.6,3.4-1.7c0.7-1,1.1-2.5,1.1-4.3c0-1.7-0.4-3.1-1.1-4.1
				c-0.8-1.1-2-1.7-3.4-1.7c-1.5,0-2.6,0.6-3.4,1.7c-0.7,1-1.1,2.4-1.1,4.4c0,1.6,0.4,3,1.1,4C50.7,43,51.9,43.6,53.3,43.6
				 M53.3,28.4c-1.7,0-3.3,0.4-4.8,1.2c-1.4,0.8-2.6,1.9-3.4,3.3c-0.8,1.4-1.2,3-1.2,4.8s0.4,3.4,1.2,4.8c0.8,1.4,1.9,2.5,3.3,3.3
				c1.4,0.8,3,1.2,4.8,1.2c1.7,0,3.3-0.4,4.7-1.2s2.5-1.9,3.4-3.3c0.8-1.4,1.3-3,1.3-4.8s-0.4-3.3-1.2-4.8c-0.8-1.4-1.9-2.5-3.3-3.3
				C56.7,28.8,55.1,28.4,53.3,28.4L53.3,28.4z M53.3,42.6c-1.1,0-1.9-0.4-2.5-1.3c-0.6-0.9-1-2-1-3.5c0-1.7,0.3-3,0.9-3.8
				c0.6-0.8,1.4-1.3,2.6-1.3c1.1,0,2,0.4,2.6,1.3c0.6,0.9,0.9,2,0.9,3.5c0,1.6-0.3,2.8-0.9,3.7C55.2,42.2,54.4,42.6,53.3,42.6
				L53.3,42.6z"/>
		</g>
		<g>
			<path class="st0" d="M74.3,29.6c1.7,0,3.3,0.5,4.8,1.6l1.6,1v-1.9v-0.5h1.9V35h-2.4c-1.1-1.9-2.8-2.9-4.9-2.9
				c-1.5,0-2.7,0.6-3.7,1.6c-0.9,1.1-1.4,2.4-1.4,3.9c0,1.7,0.4,3.1,1.3,4.2c0.9,1.2,2.2,1.8,3.7,1.8c1.1,0,2.1-0.3,3.1-0.9
				c0.7-0.4,1.3-1,1.8-1.7l2.6,1.1c-0.8,1.2-1.6,2.1-2.6,2.8c-1.2,0.8-2.9,1.2-5,1.2c-2.8,0-4.9-0.7-6.4-2.2
				c-1.6-1.5-2.3-3.4-2.3-6.1c0-1.5,0.4-3,1.1-4.2s1.7-2.2,2.9-2.9C71.5,30,72.8,29.6,74.3,29.6 M74.3,28.6c-1.6,0-3.1,0.4-4.5,1.2
				c-1.4,0.8-2.5,1.9-3.3,3.3c-0.8,1.4-1.2,2.9-1.2,4.7c0,2.9,0.9,5.2,2.6,6.8c1.8,1.6,4.1,2.5,7.1,2.5c2.3,0,4.1-0.4,5.5-1.3
				c1.4-0.9,2.5-2.2,3.5-4.1l-4.4-1.9c-0.5,0.9-1.2,1.6-2,2.1s-1.6,0.7-2.5,0.7c-1.2,0-2.2-0.5-3-1.4c-0.7-0.9-1.1-2.1-1.1-3.5
				c0-1.3,0.4-2.4,1.2-3.2c0.8-0.9,1.8-1.3,2.9-1.3c1.9,0,3.4,1,4.3,2.9h4v-7.2h-3.9v1.5C77.9,29.2,76.1,28.6,74.3,28.6L74.3,28.6z"
				/>
		</g>
		<g>
			<path class="st0" d="M93.1,22.1v20.6v1h1h1.1v1.9h-8.7v-2.1h1.8h1v-1V25.2v-1h-1h-1.8v-2.1H93.1 M106.2,29.8v1.6h-0.8H105
				l-0.3,0.2L99.5,36l-0.8,0.6l0.6,0.8l4.8,5.6l0.3,0.4h0.5h1.5v2.1h-4.2l-6.7-8.2l5.3-4.3l2.2-1.8h-2.8h-2.7v-1.4L106.2,29.8
				 M94.1,21.1h-8.5v4.1h2.8v17.3h-2.8v4.1h10.7v-3.9h-2.1L94.1,21.1L94.1,21.1z M107.2,28.8H96.5v3.4h3.7l-6,5l7.6,9.4h5.6v-4.1
				h-2.5l-4.8-5.6l5.2-4.4h1.8v-3.7H107.2z"/>
		</g>
	</g>
	<g>
		<g>
			<path class="st0" d="M207.9,22.1v2.3h-2.4h-1.4l0.4,1.3l5.3,16.8l0.2,0.7h0.7h2v2.3h-10.5v-2.3h2.3h1.3l-0.4-1.3l-1.2-4.3
				l-0.2-0.7h-0.8h-6.6h-0.7l-0.2,0.7l-1.4,4.3l-0.4,1.3h1.4h2.4v2.3h-9.3v-2.3h2.1h0.7l0.2-0.7l5-16.8l0.4-1.3h-1.3h-2.4v-2.3
				L207.9,22.1 M196.6,35.2h1.3h4.4h1.3l-0.4-1.3l-2.1-7.7l-0.9-3.3l-1,3.3l-2.3,7.7L196.6,35.2 M208.9,21.1h-16.7v4.3h3.4l-5,16.8
				h-3.1v4.3h11.3v-4.3h-3.4l1.4-4.3h6.6l1.2,4.3h-3.3v4.3h12.6v-4.3h-3l-5.3-16.8h3.4L208.9,21.1L208.9,21.1z M197.9,34.2l2.3-7.7
				l2.1,7.7H197.9L197.9,34.2z"/>
		</g>
		<g>
			<path class="st0" d="M220.7,24v4.9v1h1h2.3V32h-2.3h-1v1v7.8c0,0.8,0.2,1.4,0.5,1.9c0.4,0.5,1.1,0.8,2,0.8c0.2,0,0.5,0,0.8-0.1
				v1.9c-1.2,0.4-2.3,0.6-3.3,0.6c-1.3,0-2.2-0.3-2.8-0.9c-0.6-0.6-0.9-1.5-0.9-2.6V33v-1h-1h-1.2v-2.2h1.2h1v-1v-2.2L220.7,24
				 M221.7,22l-5.6,4.1v2.8h-2.2V33h2.2v9.4c0,1.4,0.4,2.5,1.2,3.3s1.9,1.2,3.5,1.2c1.3,0,2.8-0.3,4.3-0.9v-4
				c-0.7,0.2-1.3,0.4-1.8,0.4c-0.6,0-1-0.1-1.2-0.4c-0.2-0.3-0.3-0.7-0.3-1.2V33h3.3v-4.2h-3.3L221.7,22L221.7,22z"/>
		</g>
		<g>
			<path class="st0" d="M234.3,22.1v20.4v1h1h1.5v2.1h-9v-2.1h1.8h1v-1V25.2v-1h-1h-1.7v-2.1H234.3 M235.3,21.1h-8.4v4.1h2.8v17.3
				h-2.8v4.1h11v-4.1h-2.5V21.1H235.3z"/>
		</g>
		<g>
			<path class="st0" d="M247.7,29.4c2.7,0,4.6,0.5,5.7,1.6c1.1,1,1.6,2.7,1.6,5v6.6v1h1h1.9v2.1h-6.5v-0.4v-1.9l-1.6,1.1
				c-1.4,1-2.9,1.5-4.3,1.5c-1.7,0-3-0.4-4-1.3c-0.9-0.8-1.4-1.9-1.4-3.3c0-1.5,0.5-2.7,1.6-3.6c1.1-0.9,2.7-1.4,4.6-1.4
				c0.7,0,1.3,0.1,1.8,0.2c0.5,0.1,1.2,0.4,1.9,0.8l1.5,0.7v-1.6V35c0-1.2-0.4-2.2-1.2-2.9s-1.8-1.1-3.2-1.1c-1.3,0-2.5,0.5-3.6,1.3
				l-2.6-0.5C242.1,30.3,244.4,29.4,247.7,29.4 M246.7,44.4c1.3,0,2.7-0.7,4.2-2.1l0.3-0.3v-0.4V40v-0.5l-0.5-0.3
				c-1.4-0.9-2.7-1.3-3.9-1.3c-1.1,0-1.9,0.3-2.5,0.8c-0.4,0.4-1,1.1-1,2.4C243.4,43.1,244.6,44.4,246.7,44.4 M247.7,28.4
				c-4.3,0-7.2,1.4-8.6,4.2l4.6,0.8c0.9-0.9,2-1.4,3.3-1.4c1.1,0,2,0.3,2.5,0.8c0.6,0.5,0.8,1.3,0.8,2.2v1.4
				c-0.8-0.4-1.5-0.7-2.1-0.8c-0.6-0.2-1.3-0.2-2-0.2c-2.2,0-3.9,0.5-5.2,1.6s-2,2.5-2,4.3c0,1.7,0.6,3.1,1.8,4.1s2.7,1.5,4.7,1.5
				c1.6,0,3.2-0.6,4.8-1.7v1.4h8.5v-4.1h-2.9v-6.6c0-2.6-0.6-4.4-1.9-5.7C252.8,29.1,250.6,28.4,247.7,28.4L247.7,28.4z M246.7,43.4
				c-1.5,0-2.3-0.8-2.3-2.4c0-0.7,0.2-1.3,0.6-1.6c0.4-0.4,1-0.6,1.9-0.6c1,0,2.1,0.4,3.3,1.2v1.6C248.9,42.7,247.7,43.4,246.7,43.4
				L246.7,43.4z"/>
		</g>
		<g>
			<path class="st0" d="M267.1,29.6c1.5,0,2.8,0.3,4.1,0.8l1.4,0.6v-1.1h2v3.2h-2.4c-0.7-1.2-2.2-1.9-4.6-1.9c-3,0-3.4,1.5-3.4,2.4
				c0,0.8,0.5,1.4,1.2,1.8c0.5,0.2,1.2,0.4,2.2,0.6c2.2,0.3,4,0.7,5.2,1.2c1.1,0.5,1.9,1,2.3,1.7c0.4,0.6,0.6,1.4,0.6,2.4
				c0,1.6-0.5,2.7-1.6,3.6c-1.1,0.9-2.6,1.3-4.6,1.3c-1.8,0-3.1-0.3-3.6-1l-1.7-1.9v2.5h-2.1v-4.1h2.3c0.3,0.7,0.8,1.4,1.4,1.8
				c0.9,0.6,1.9,0.9,3.2,0.9c1.2,0,2.1-0.1,2.7-0.4c0.8-0.4,1.3-1.1,1.3-2.1c0-0.7-0.2-1.2-0.6-1.6c-0.3-0.4-0.9-0.6-1.6-0.9
				c-0.6-0.2-1.5-0.4-2.8-0.6c-2.5-0.4-4.2-1-5.3-1.8c-0.9-0.7-1.4-1.7-1.4-3s0.5-2.3,1.4-3C263.9,30,265.3,29.6,267.1,29.6
				 M267.1,28.6c-2,0-3.6,0.5-4.8,1.4c-1.2,0.9-1.8,2.2-1.8,3.8s0.6,2.8,1.8,3.8c1.2,0.9,3.1,1.6,5.7,2c1.2,0.2,2.1,0.4,2.7,0.6
				c0.6,0.2,1,0.4,1.2,0.6c0.2,0.2,0.3,0.5,0.3,0.9c0,0.6-0.2,1-0.7,1.2s-1.2,0.3-2.2,0.3s-1.9-0.2-2.6-0.7s-1.1-1.1-1.2-2h-4.1v6.1
				h4.1v-0.9c0.8,0.9,2.2,1.3,4.4,1.3c2.2,0,3.9-0.5,5.2-1.6c1.3-1,1.9-2.5,1.9-4.4c0-1.1-0.3-2.1-0.8-2.9c-0.5-0.8-1.5-1.5-2.8-2
				s-3.2-1-5.5-1.3c-0.8-0.1-1.4-0.3-1.9-0.5c-0.4-0.2-0.6-0.5-0.6-0.9c0-0.9,0.8-1.4,2.4-1.4c2.2,0,3.5,0.6,3.9,1.9h4v-5.2h-4v0.6
				C270.2,28.9,268.7,28.6,267.1,28.6L267.1,28.6z"/>
		</g>
	</g>
	<g>
		<g>
			<g>
				<path class="st0" d="M146.4,5.1V0.5h0.9l1.9,3.1V0.5h0.9v4.6h-0.9l-1.9-3v3H146.4z"/>
			</g>
		</g>
		<g>
			<g>
				<path class="st0" d="M179.4,37.3v-4.6h3.4v0.8h-2.5v1h2.3v0.8h-2.3v1.3h2.6v0.8L179.4,37.3L179.4,37.3z"/>
			</g>
		</g>
		<g>
			<g>
				<path class="st0" d="M146.3,69l0.9-0.1c0.1,0.3,0.2,0.5,0.3,0.7c0.2,0.1,0.4,0.2,0.7,0.2s0.5-0.1,0.7-0.2s0.2-0.3,0.2-0.4
					s0-0.2-0.1-0.3c-0.1-0.1-0.2-0.1-0.3-0.2c-0.1,0-0.4-0.1-0.8-0.2c-0.5-0.1-0.9-0.3-1.1-0.5c-0.3-0.3-0.4-0.6-0.4-0.9
					c0-0.2,0.1-0.5,0.2-0.7s0.3-0.4,0.6-0.5s0.6-0.2,0.9-0.2c0.6,0,1,0.1,1.3,0.4s0.4,0.6,0.5,1H149c0-0.2-0.1-0.4-0.3-0.5
					c-0.1-0.1-0.3-0.2-0.6-0.2s-0.5,0.1-0.6,0.2s-0.1,0.2-0.1,0.3c0,0.1,0,0.2,0.1,0.3c0.1,0.1,0.4,0.2,0.9,0.3
					c0.5,0.1,0.8,0.2,1,0.3c0.2,0.1,0.4,0.3,0.5,0.5s0.2,0.4,0.2,0.7c0,0.3-0.1,0.5-0.2,0.7c-0.1,0.2-0.4,0.4-0.6,0.5
					c-0.3,0.1-0.6,0.2-1,0.2c-0.6,0-1-0.1-1.4-0.4C146.6,70,146.4,69.6,146.3,69z"/>
			</g>
		</g>
		<g>
			<g>
				<path class="st0" d="M113.2,37.3l-1.1-4.6h1l0.7,3.2l0.8-3.2h1.1l0.8,3.2l0.7-3.2h0.9l-1.1,4.6h-1l-0.9-3.5l-0.9,3.5H113.2z"/>
			</g>
		</g>
		<g>
			<path class="st0" d="M148.4,27.1c-4.4,0-7.9,3.5-7.9,7.9s3.5,7.9,7.9,7.9s7.9-3.5,7.9-7.9C156.3,30.7,152.7,27.1,148.4,27.1z
				 M148.4,37.7c-1.5,0-2.7-1.2-2.7-2.7s1.2-2.7,2.7-2.7s2.7,1.2,2.7,2.7C151.1,36.5,149.9,37.7,148.4,37.7z"/>
		</g>
		<g>
			<g>
				<path class="st0" d="M154.2,30.2h-12l6-24.4L154.2,30.2z M143.6,29.1h9.3l-4.6-18.9L143.6,29.1z"/>
			</g>
			<g>
				<polygon class="st0" points="148.2,29.7 148.2,8 142.9,29.7 				"/>
			</g>
		</g>
		<g>
			<g>
				<path class="st0" d="M153.8,41V29l24.4,6L153.8,41z M154.8,30.4v9.3l18.9-4.6L154.8,30.4z"/>
			</g>
			<g>
				<polygon class="st0" points="154.3,35 175.9,35 154.3,29.7 				"/>
			</g>
		</g>
		<g>
			<g>
				<path class="st0" d="M143.3,41l-24.4-6l24.4-6V41z M123.3,35l18.9,4.6v-9.3L123.3,35z"/>
			</g>
			<g>
				<polygon class="st0" points="142.7,35 121.1,35 142.7,40.3 				"/>
			</g>
		</g>
		<g>
			<g>
				<path class="st0" d="M148.2,64.8l-6-24.4h12L148.2,64.8z M143.6,41.5l4.6,18.9l4.6-18.9H143.6z"/>
			</g>
			<g>
				<polygon class="st0" points="148.2,40.9 148.2,62.6 153.6,40.9 				"/>
			</g>
		</g>
	</g>
</g>
</svg>
